<svg xmlns="http://www.w3.org/2000/svg" width="1200" height="675" viewBox="0 0 1200 675" font-family="-apple-system, 'Segoe UI', 'PingFang SC', sans-serif"><rect width="1200" height="675" fill="#ffffff"/><text x="600" y="58" text-anchor="middle" font-size="34" font-weight="700" fill="#1e293b">ReadyLLM 调优前后吞吐对比</text><text x="600" y="92" text-anchor="middle" font-size="19" fill="#64748b">同一模型 · 同一量化 · 同一上下文长度（单位：tokens/s）</text><line x1="120" y1="560" x2="1080" y2="560" stroke="#cbd5e1" stroke-width="2"/><rect x="230" y="287" width="90" height="273" rx="8" fill="#94a3b8"/><rect x="340" y="184" width="90" height="376" rx="8" fill="#10b981"/><text x="275" y="272" text-anchor="middle" font-size="24" font-weight="700" fill="#64748b">80</text><text x="385" y="169" text-anchor="middle" font-size="24" font-weight="700" fill="#059669">110</text><text x="305" y="595" text-anchor="middle" font-size="22" font-weight="600" fill="#334155">峰值吞吐</text><text x="305" y="628" text-anchor="middle" font-size="20" font-weight="700" fill="#059669">+37%</text><rect x="530" y="355" width="90" height="205" rx="8" fill="#94a3b8"/><rect x="640" y="287" width="90" height="273" rx="8" fill="#10b981"/><text x="575" y="340" text-anchor="middle" font-size="24" font-weight="700" fill="#64748b">60</text><text x="685" y="272" text-anchor="middle" font-size="24" font-weight="700" fill="#059669">80</text><text x="605" y="595" text-anchor="middle" font-size="22" font-weight="600" fill="#334155">平均吞吐</text><text x="605" y="628" text-anchor="middle" font-size="20" font-weight="700" fill="#059669">+33%</text><rect x="830" y="423" width="90" height="137" rx="8" fill="#94a3b8"/><rect x="940" y="355" width="90" height="205" rx="8" fill="#10b981"/><text x="875" y="408" text-anchor="middle" font-size="24" font-weight="700" fill="#64748b">40</text><text x="985" y="340" text-anchor="middle" font-size="24" font-weight="700" fill="#059669">60</text><text x="905" y="595" text-anchor="middle" font-size="22" font-weight="600" fill="#334155">100K 上下文</text><text x="905" y="628" text-anchor="middle" font-size="20" font-weight="700" fill="#059669">+50%</text><rect x="470" y="648" width="22" height="22" rx="5" fill="#94a3b8"/><text x="500" y="665" font-size="18" fill="#475569">调优前</text><rect x="610" y="648" width="22" height="22" rx="5" fill="#10b981"/><text x="640" y="665" font-size="18" fill="#475569">ReadyLLM 调优后</text></svg>